<svg width="100" height="101" viewBox="0 0 100 101" fill="none" xmlns="http://www.w3.org/2000/svg">
<g clip-path="url(#clip0_3355_9367)">
<path d="M75.3593 41.9066L76.1495 41.6419L76.0316 40.8169C76.0016 40.6072 76 40.3865 76 40.0833C76 33.719 81.1356 28.5833 87.5 28.5833C93.8687 28.5833 99 33.6816 99 40.0417C99 46.4061 93.8644 51.5417 87.5 51.5417C83.4368 51.5417 79.8717 49.4342 77.8398 46.2905L77.4184 45.6385L76.6824 45.8851L68.224 48.7185L67.4242 48.9864L67.5535 49.8199C68.3428 54.9112 66.9219 60.2739 63.2546 64.3751L62.6918 65.0044L63.2178 65.6647L69.0928 73.0397L69.5758 73.646L70.2834 73.3295C71.7381 72.6787 73.3073 72.3333 75 72.3333C81.3644 72.3333 86.5 77.469 86.5 83.8333C86.5 90.1977 81.3644 95.3333 75 95.3333C68.6356 95.3333 63.5 90.1977 63.5 83.8333C63.5 81.2204 64.3442 78.8444 65.7622 76.9282L66.219 76.3109L65.7405 75.7103L59.8655 68.3353L59.3379 67.673L58.5977 68.0842C53.2716 71.0431 46.7233 71.0809 41.3628 68.0854L40.6218 67.6713L40.0928 68.3353L34.2178 75.7103L33.733 76.3189L34.2038 76.9384C35.6564 78.8497 36.5 81.221 36.5 83.8333C36.5 90.1977 31.3644 95.3333 25 95.3333C18.6356 95.3333 13.5 90.1977 13.5 83.8333C13.5 77.469 18.6356 72.3333 25 72.3333C26.6923 72.3333 28.2536 72.6784 29.6969 73.3621L30.4133 73.7014L30.9072 73.0814L36.7822 65.7064L37.3079 65.0465L36.7458 64.4172C33.1183 60.356 31.6575 54.9508 32.4465 49.8615L32.5758 49.028L31.776 48.7601L23.3176 45.9268L22.588 45.6824L22.1648 46.325C20.0873 49.4798 16.5581 51.5833 12.5 51.5833C6.13562 51.5833 1 46.4477 1 40.0833C1 33.719 6.13562 28.5833 12.5 28.5833C18.8644 28.5833 24 33.719 24 40.0833C24 40.3865 23.9983 40.6072 23.9684 40.8169L23.8504 41.6431L24.6421 41.907L33.1421 44.7404L33.9461 45.0083L34.3423 44.2592C36.8664 39.487 41.52 36.0182 47.0371 35.1118L47.875 34.9741V34.125V25.125V24.3544L47.1299 24.158C42.1775 22.8527 38.5 18.3624 38.5 13C38.5 6.63562 43.6356 1.5 50 1.5C56.3644 1.5 61.5 6.63562 61.5 13C61.5 18.364 57.8206 22.8541 52.9099 24.1585L52.1667 24.3559V25.125V34.125V34.9741L53.0046 35.1118C58.5217 36.0182 63.1752 39.487 65.6994 44.2592L66.0962 45.0095L66.901 44.7399L75.3593 41.9066ZM7.33333 40.0833C7.33333 42.9273 9.65605 45.25 12.5 45.25C15.344 45.25 17.6667 42.9273 17.6667 40.0833C17.6667 37.2394 15.344 34.9167 12.5 34.9167C9.65605 34.9167 7.33333 37.2394 7.33333 40.0833ZM19.8333 83.8333C19.8333 86.6773 22.156 89 25 89C27.844 89 30.1667 86.6773 30.1667 83.8333C30.1667 80.9894 27.844 78.6667 25 78.6667C22.156 78.6667 19.8333 80.9894 19.8333 83.8333ZM50 7.83333C47.156 7.83333 44.8333 10.156 44.8333 13C44.8333 15.844 47.156 18.1667 50 18.1667C52.8439 18.1667 55.1667 15.844 55.1667 13C55.1667 10.156 52.8439 7.83333 50 7.83333ZM38.5833 52.5833C38.5833 58.8856 43.6977 64 50 64C56.3023 64 61.4167 58.8856 61.4167 52.5833C61.4167 46.2811 56.3023 41.1667 50 41.1667C43.6977 41.1667 38.5833 46.2811 38.5833 52.5833ZM80.1667 83.8333C80.1667 80.9894 77.8439 78.6667 75 78.6667C72.156 78.6667 69.8333 80.9894 69.8333 83.8333C69.8333 86.6773 72.156 89 75 89C77.8439 89 80.1667 86.6773 80.1667 83.8333ZM82.3333 40.0833C82.3333 42.9273 84.656 45.25 87.5 45.25C90.3439 45.25 92.6667 42.9273 92.6667 40.0833C92.6667 37.2394 90.3439 34.9167 87.5 34.9167C84.656 34.9167 82.3333 37.2394 82.3333 40.0833Z" fill="#29B6F6" stroke="#1E1E1E" stroke-width="2"/>
</g>
<defs>
<clipPath id="clip0_3355_9367">
<rect width="100" height="100" fill="white" transform="translate(0 0.5)"/>
</clipPath>
</defs>
</svg>
