<svg width="100" height="100" viewBox="0 0 100 100" fill="none" xmlns="http://www.w3.org/2000/svg">
<g clip-path="url(#clip0_3355_9383)">
<path d="M58.3337 46.8332H59.3337V45.8332V38.4998H86.5003V61.4998H59.3337V54.1665V53.1665H58.3337H45.8337H44.8337V54.1665V61.4998H35.417H34.417V62.4998V70.8332V71.8332H35.417H44.8337V94.8332H17.667V71.8332H27.0837H28.0837V70.8332V62.4998V61.4998H27.0837H17.667V38.4998H27.0837H28.0837V37.4998V29.1665V28.1665H27.0837H17.667V5.1665H44.8337V28.1665H35.417H34.417V29.1665V37.4998V38.4998H35.417H44.8337V45.8332V46.8332H45.8337H58.3337ZM25.0003 11.4998H24.0003V12.4998V20.8332V21.8332H25.0003H37.5003H38.5003V20.8332V12.4998V11.4998H37.5003H25.0003ZM37.5003 88.4998H38.5003V87.4998V79.1665V78.1665H37.5003H25.0003H24.0003V79.1665V87.4998V88.4998H25.0003H37.5003ZM37.5003 55.1665H38.5003V54.1665V45.8332V44.8332H37.5003H25.0003H24.0003V45.8332V54.1665V55.1665H25.0003H37.5003ZM79.167 55.1665H80.167V54.1665V45.8332V44.8332H79.167H66.667H65.667V45.8332V54.1665V55.1665H66.667H79.167Z" fill="#FDE293" stroke="#1E1E1E" stroke-width="2"/>
</g>
<defs>
<clipPath id="clip0_3355_9383">
<rect width="100" height="100" fill="white"/>
</clipPath>
</defs>
</svg>
