<svg width="100" height="100" viewBox="0 0 100 100" fill="none" xmlns="http://www.w3.org/2000/svg">
<g clip-path="url(#clip0_3355_9375)">
<path d="M9.37467 16.6674V16.6668C9.37467 12.6292 12.6418 9.3335 16.6663 9.3335H83.333C87.3641 9.3335 90.6664 12.6358 90.6664 16.6668V66.6668C90.6664 70.6979 87.3641 74.0002 83.333 74.0002H24.9997H24.5855L24.2926 74.2931L9.33435 89.2513L9.37467 16.6674ZM83.333 67.6668H84.333V66.6668V16.6668V15.6668H83.333H16.6663H15.6663V16.6668V71.5418V73.956L17.3734 72.2489L19.7901 69.8323L21.9556 67.6668H83.333ZM25.9997 51.0002H32.333V57.3335H25.9997V51.0002ZM25.9997 38.5002H32.333V44.8335H25.9997V38.5002ZM25.9997 26.0002H32.333V32.3335H25.9997V26.0002ZM42.6663 51.0002H61.4997V57.3335H42.6663V51.0002ZM42.6663 38.5002H73.9997V44.8335H42.6663V38.5002ZM42.6663 26.0002H73.9997V32.3335H42.6663V26.0002Z" fill="#FF8BCB" stroke="#1E1E1E" stroke-width="2"/>
</g>
<defs>
<clipPath id="clip0_3355_9375">
<rect width="100" height="100" fill="white"/>
</clipPath>
</defs>
</svg>
